<svg width="97" height="81" viewBox="0 0 97 81" fill="none" xmlns="http://www.w3.org/2000/svg">
<g clip-path="url(#clip0_17_49)">
<path d="M18.3874 2.95032V76.9768" stroke="white" stroke-width="5" stroke-linecap="round"/>
<path d="M54.3627 21.7252C54.3627 32.897 42.6951 42.3775 27.7143 42.3775C12.7335 42.3775 1.06595 32.897 1.06595 21.7252C1.06595 10.5534 12.7335 1.07288 27.7143 1.07288C42.6951 1.07288 54.3627 10.5534 54.3627 21.7252Z" stroke="white" stroke-width="4"/>
<path d="M20.2527 43.4503L83.1429 78.3179" stroke="white" stroke-width="4" stroke-linecap="round"/>
<path d="M58.3849 64.299C56.7551 63.4569 55.7025 62.2349 55.2276 60.6326C54.757 59.0233 54.9814 57.3164 55.9018 55.5119L56.0958 55.1316C56.7077 53.9311 57.4794 52.9778 58.4105 52.2717C59.3528 51.562 60.3665 51.153 61.4516 51.0445C62.5474 50.9325 63.5734 51.1233 64.5295 51.617C66.0927 52.4246 67.043 53.5705 67.3814 55.0549C67.7199 56.5391 67.3963 58.2471 66.4114 60.1782L65.9723 61.0392L57.8264 56.8315C57.2476 58.0395 57.0994 59.1832 57.3824 60.2619C57.6766 61.3375 58.3348 62.1389 59.3576 62.6672C60.0835 63.0422 60.7742 63.2106 61.4303 63.1731C62.0864 63.135 62.7286 62.9671 63.3575 62.6705L64.1111 64.3033C62.3086 65.3413 60.4001 65.3397 58.3849 64.299ZM63.6624 53.3172C62.8325 52.8885 61.9803 52.8345 61.1052 53.1551C60.2343 53.4682 59.4525 54.1381 58.7601 55.1654L64.7832 58.2772L64.8632 58.1205C65.3402 57.0386 65.4729 56.0805 65.2623 55.2458C65.055 54.4042 64.5215 53.761 63.6624 53.3172Z" fill="white"/>
<path d="M84.1976 71.2729C83.2207 72.8328 81.9186 73.7802 80.2915 74.1149C78.6569 74.4453 76.9871 74.0698 75.2827 72.9879L74.9235 72.7599C73.7893 72.0405 72.9136 71.1828 72.297 70.1867C71.6777 69.1798 71.3622 68.1273 71.3504 67.0298C71.3366 65.921 71.6159 64.9093 72.1888 63.9947C73.1258 62.4986 74.3436 61.6468 75.8423 61.4387C77.341 61.23 79.0028 61.7047 80.8277 62.8629L81.641 63.3789L76.7579 71.1748C77.9027 71.8614 79.022 72.1108 80.1145 71.922C81.2045 71.7219 82.0561 71.1329 82.6685 70.1545C83.104 69.4593 83.3315 68.7818 83.3518 68.1209C83.372 67.4595 83.2633 66.8007 83.0245 66.1442L84.7071 65.5326C85.5753 67.431 85.4058 69.3445 84.1976 71.2729ZM73.7946 65.0139C73.2974 65.8078 73.1689 66.6581 73.4088 67.563C73.6417 68.4642 74.2365 69.3069 75.1921 70.0917L78.8024 64.3273L78.6548 64.2334C77.6256 63.66 76.6892 63.4422 75.845 63.5801C74.9933 63.7136 74.31 64.1916 73.7946 65.0139Z" fill="white"/>
</g>
<defs>
<clipPath id="clip0_17_49">
<rect width="97" height="81" fill="white"/>
</clipPath>
</defs>
</svg>
